<?xml version="1.0" encoding="UTF-8" ?>
<!DOCTYPE svg PUBLIC "-//W3C//DTD SVG 1.1//EN" "http://www.w3.org/Graphics/SVG/1.1/DTD/svg11.dtd">
<svg width="80pt" height="80pt" viewBox="0 0 80 80" version="1.1" xmlns="http://www.w3.org/2000/svg">
<g id="#0197ddff">
<path fill="#0197dd" opacity="1.00" d=" M 8.58 0.00 L 71.44 0.00 C 75.66 0.92 79.20 4.10 80.00 8.44 L 80.00 71.92 C 79.15 75.88 76.04 78.86 72.23 80.00 L 8.09 80.00 C 4.18 79.14 1.22 76.11 0.00 72.37 L 0.00 7.80 C 1.24 3.83 4.53 0.88 8.58 0.00 M 13.20 18.96 C 13.21 32.00 13.13 45.04 13.24 58.08 C 13.13 61.52 16.50 63.33 19.46 63.83 C 19.39 66.38 19.59 70.22 22.99 70.27 C 26.66 70.30 26.71 66.10 26.61 63.47 C 35.54 63.52 44.48 63.55 53.41 63.45 C 53.31 66.11 53.36 70.30 57.02 70.27 C 60.42 70.23 60.59 66.36 60.54 63.83 C 63.52 63.34 66.89 61.49 66.77 58.03 C 66.89 44.99 66.80 31.95 66.80 18.91 C 66.95 14.25 62.82 9.96 58.14 9.98 C 46.41 9.83 34.66 9.94 22.93 9.93 C 17.86 9.48 12.99 13.82 13.20 18.96 Z" />
<path fill="#0197dd" opacity="1.00" d=" M 29.75 13.79 C 36.58 13.80 43.41 13.80 50.25 13.79 C 50.25 14.46 50.26 15.79 50.26 16.45 C 43.42 16.42 36.58 16.42 29.74 16.45 C 29.74 15.79 29.75 14.45 29.75 13.79 Z" />
<path fill="#0197dd" opacity="1.00" d=" M 21.23 22.09 C 22.74 21.53 24.39 21.66 25.96 21.61 C 35.96 21.71 45.97 21.61 55.97 21.64 C 59.07 21.37 62.23 23.81 62.27 27.02 C 62.36 31.63 62.57 36.27 62.09 40.86 C 61.79 41.12 61.18 41.65 60.88 41.92 C 48.26 42.15 35.63 41.86 23.00 42.10 C 21.30 41.90 19.02 42.59 17.92 40.85 C 17.38 36.60 17.70 32.28 17.67 28.01 C 17.47 25.52 18.91 23.04 21.23 22.09 Z" />
<path fill="#0197dd" opacity="1.00" d=" M 21.14 48.03 C 24.38 46.34 28.56 50.52 26.63 53.66 C 25.58 56.23 21.91 57.09 19.95 55.01 C 17.57 53.13 18.45 49.14 21.14 48.03 Z" />
<path fill="#0197dd" opacity="1.00" d=" M 55.29 48.17 C 57.93 46.57 61.59 49.02 61.46 52.02 C 61.48 55.27 57.19 57.51 54.66 55.30 C 52.09 53.54 52.53 49.51 55.29 48.17 Z" />
</g>
<g id="#ffffffff">
<path fill="#ffffff" opacity="1.00" d=" M 13.20 18.96 C 12.99 13.82 17.86 9.48 22.93 9.93 C 34.66 9.94 46.41 9.83 58.14 9.98 C 62.82 9.96 66.95 14.25 66.80 18.91 C 66.80 31.95 66.89 44.99 66.77 58.03 C 66.89 61.49 63.52 63.34 60.54 63.83 C 60.59 66.36 60.42 70.23 57.02 70.27 C 53.36 70.30 53.31 66.11 53.41 63.45 C 44.48 63.55 35.54 63.52 26.61 63.47 C 26.71 66.10 26.66 70.30 22.99 70.27 C 19.59 70.22 19.39 66.38 19.46 63.83 C 16.50 63.33 13.13 61.52 13.24 58.08 C 13.13 45.04 13.21 32.00 13.20 18.96 M 29.75 13.79 C 29.75 14.45 29.74 15.79 29.74 16.45 C 36.58 16.42 43.42 16.42 50.26 16.45 C 50.26 15.79 50.25 14.46 50.25 13.79 C 43.41 13.80 36.58 13.80 29.75 13.79 M 21.23 22.09 C 18.91 23.04 17.47 25.52 17.67 28.01 C 17.70 32.28 17.38 36.60 17.92 40.85 C 19.02 42.59 21.30 41.90 23.00 42.10 C 35.63 41.86 48.26 42.15 60.88 41.92 C 61.18 41.65 61.79 41.12 62.09 40.86 C 62.57 36.27 62.36 31.63 62.27 27.02 C 62.23 23.81 59.07 21.37 55.97 21.64 C 45.97 21.61 35.96 21.71 25.96 21.61 C 24.39 21.66 22.74 21.53 21.23 22.09 M 21.14 48.03 C 18.45 49.14 17.57 53.13 19.95 55.01 C 21.91 57.09 25.58 56.23 26.63 53.66 C 28.56 50.52 24.38 46.34 21.14 48.03 M 55.29 48.17 C 52.53 49.51 52.09 53.54 54.66 55.30 C 57.19 57.51 61.48 55.27 61.46 52.02 C 61.59 49.02 57.93 46.57 55.29 48.17 Z" />
</g>
</svg>
