<?xml version="1.0" encoding="UTF-8" ?>
<!DOCTYPE svg PUBLIC "-//W3C//DTD SVG 1.1//EN" "http://www.w3.org/Graphics/SVG/1.1/DTD/svg11.dtd">
<svg width="120pt" height="120pt" viewBox="0 0 120 120" version="1.1" xmlns="http://www.w3.org/2000/svg">
<g id="#000000ff">
<path fill="#000000" opacity="1.00" d=" M 39.03 6.77 C 47.34 6.14 55.68 6.33 64.00 6.29 C 70.29 6.41 76.62 6.11 82.86 7.10 C 89.35 7.99 96.42 8.20 102.05 11.94 C 106.32 14.89 105.73 20.53 105.72 25.05 C 109.85 25.33 114.51 25.26 117.86 28.08 C 120.48 30.29 119.82 34.01 119.80 37.04 C 119.37 41.61 119.33 46.68 116.49 50.52 C 114.37 51.21 112.10 50.70 109.94 50.53 C 109.92 43.91 109.87 37.29 110.00 30.67 C 108.56 30.48 107.12 30.28 105.69 30.08 C 105.65 51.74 105.77 73.41 105.63 95.07 C 105.71 99.35 101.31 101.28 98.06 102.87 C 97.63 106.34 99.79 111.83 95.50 113.42 C 91.52 114.08 87.38 114.03 83.39 113.45 C 79.80 112.35 81.00 108.04 80.82 105.21 C 66.99 105.34 53.16 105.34 39.33 105.22 C 39.15 108.05 40.38 112.57 36.65 113.51 C 31.82 113.91 26.46 114.68 22.11 112.03 C 22.12 108.98 22.13 105.93 22.13 102.89 C 18.88 101.24 14.35 99.38 14.55 95.00 C 14.48 73.36 14.53 51.72 14.54 30.09 C 13.07 30.28 11.61 30.48 10.14 30.70 C 10.19 37.34 10.21 43.98 10.15 50.62 C 8.19 50.77 6.20 50.96 4.23 50.77 C 1.58 48.77 1.46 44.98 0.84 41.98 C 0.51 38.05 -0.32 33.92 0.85 30.07 C 3.44 25.23 9.75 25.35 14.50 25.06 C 14.51 20.58 13.81 15.01 17.99 12.04 C 24.14 7.81 31.97 8.11 39.03 6.77 M 42.14 11.33 C 41.73 13.01 41.67 14.75 41.49 16.47 C 53.78 16.77 66.09 16.66 78.38 16.53 C 78.40 14.78 78.42 13.04 78.43 11.30 C 66.34 11.09 54.22 10.96 42.14 11.33 M 34.38 21.56 C 30.67 21.99 26.69 22.27 23.46 24.32 C 21.73 25.22 22.24 27.37 22.08 28.95 C 22.16 41.33 22.04 53.71 22.13 66.09 C 21.86 68.88 24.72 70.31 26.84 71.30 C 34.76 74.46 43.40 74.97 51.80 75.68 C 64.57 76.26 77.58 75.74 89.99 72.50 C 93.18 71.40 98.02 70.15 98.10 66.03 C 98.29 54.69 98.05 43.34 98.19 32.00 C 98.15 29.77 98.32 27.49 97.76 25.31 C 94.15 21.89 88.69 21.92 84.02 21.45 C 67.47 21.18 50.91 21.04 34.38 21.56 M 22.55 80.63 C 21.79 83.59 21.88 86.76 22.35 89.76 C 27.13 94.25 34.51 93.44 40.57 93.23 C 40.47 90.85 40.72 88.02 38.51 86.47 C 34.10 82.92 28.44 79.44 22.55 80.63 M 81.08 87.04 C 79.30 88.58 79.76 91.11 79.53 93.20 C 85.47 93.51 92.33 94.09 97.33 90.29 C 99.08 87.36 97.86 83.54 97.68 80.29 C 91.47 79.94 85.52 82.88 81.08 87.04 Z" />
</g>
</svg>
