<?xml version="1.0" encoding="UTF-8" ?>
<!DOCTYPE svg PUBLIC "-//W3C//DTD SVG 1.1//EN" "http://www.w3.org/Graphics/SVG/1.1/DTD/svg11.dtd">
<svg width="120pt" height="120pt" viewBox="0 0 120 120" version="1.1" xmlns="http://www.w3.org/2000/svg">
<g id="#ec1c22ff">
<path fill="#ec1c22" opacity="1.00" d=" M 8.67 0.00 L 33.77 0.00 C 41.40 0.22 49.41 0.98 55.96 5.28 C 69.62 13.75 76.59 30.84 74.25 46.53 C 70.05 71.07 65.16 95.49 60.79 120.00 L 49.37 120.00 C 54.08 96.96 58.33 73.82 62.88 50.74 C 64.29 44.40 63.78 37.76 62.31 31.47 C 60.76 24.84 57.00 18.45 50.96 14.98 C 44.37 11.02 36.40 11.71 29.03 11.46 C 21.55 11.16 14.08 11.43 6.60 11.59 C 7.42 7.99 7.99 4.34 8.83 0.74 L 12.57 0.01 L 8.67 0.00 Z" />
<path fill="#ec1c22" opacity="1.00" d=" M 83.24 0.00 L 107.86 0.00 C 113.82 -0.47 120.10 3.64 119.80 10.13 C 119.85 10.22 119.95 10.40 120.00 10.49 L 120.00 11.97 C 107.28 11.02 94.48 11.77 81.73 11.56 C 82.61 7.70 83.23 3.79 84.39 0.01 L 83.24 0.00 Z" />
<path fill="#ec1c22" opacity="1.00" d=" M 81.26 14.34 C 94.17 14.08 107.12 14.73 120.00 14.00 L 120.00 15.39 C 117.97 19.07 117.77 23.37 116.52 27.32 C 103.90 27.31 91.28 27.32 78.65 27.32 C 79.49 22.99 80.36 18.66 81.26 14.34 Z" />
<path fill="#ec1c22" opacity="1.00" d=" M 5.59 14.58 C 15.71 14.33 25.83 14.42 35.95 14.62 C 43.71 14.70 51.76 18.28 55.98 24.99 C 60.97 32.63 61.44 42.40 59.61 51.12 C 55.18 74.05 51.17 97.07 46.74 120.00 L 36.03 120.00 C 40.63 95.60 45.63 71.26 50.35 46.88 C 51.30 41.59 51.27 35.57 47.90 31.08 C 45.25 27.30 40.44 25.69 35.97 25.77 C 25.11 25.78 14.25 25.81 3.39 25.76 C 4.18 22.05 4.83 18.30 5.59 14.58 Z" />
<path fill="#ec1c22" opacity="1.00" d=" M 2.26 29.34 C 13.54 29.32 24.82 29.17 36.09 29.50 C 40.53 29.46 45.36 31.67 46.99 36.04 C 48.77 40.95 47.59 46.22 46.61 51.16 C 42.08 74.09 37.80 97.07 33.23 120.00 L 21.39 120.00 C 27.07 93.85 32.03 67.53 37.63 41.36 C 25.09 41.30 12.54 41.34 0.00 41.34 L 0.00 40.75 C 0.87 36.97 1.68 33.18 2.26 29.34 Z" />
<path fill="#ec1c22" opacity="1.00" d=" M 78.13 30.20 C 90.74 30.25 103.36 30.04 115.97 30.31 C 114.39 34.73 112.56 40.55 107.08 41.18 C 96.71 42.08 86.27 41.48 75.88 41.57 C 76.59 37.77 77.26 33.97 78.13 30.20 Z" />
</g>
</svg>
